<?xml version="1.0" encoding="UTF-8"?><svg width="24px" height="24px" fill="#000000" version="1.1" viewBox="0 0 24 24" xmlns="http://www.w3.org/2000/svg" xmlns:cc="http://creativecommons.org/ns#" xmlns:dc="http://purl.org/dc/elements/1.1/" xmlns:rdf="http://www.w3.org/1999/02/22-rdf-syntax-ns#"><path d="M0 0h24v24H0V0z" fill="none"/><path d="m16.33 11.804c1.2106-0.83618 2.0592-2.209 2.0592-3.482 0-2.8205-2.184-4.9921-4.9921-4.9921h-7.8001v17.472h8.7861c2.6084 0 4.6302-2.1216 4.6302-4.73 0-1.897-1.0733-3.5194-2.6832-4.2682zm-6.9889-5.354h3.7441c1.0359 0 1.872 0.83617 1.872 1.872 0 1.0359-0.83617 1.872-1.872 1.872h-3.7441zm4.3681 11.232h-4.3681v-3.7441h4.3681c1.0359 0 1.872 0.83617 1.872 1.872s-0.83618 1.872-1.872 1.872z" stroke-width="1.248"/></svg>