<?xml version="1.0" encoding="UTF-8" standalone="no"?>
<svg
   xmlns:dc="http://purl.org/dc/elements/1.1/"
   xmlns:cc="http://creativecommons.org/ns#"
   xmlns:rdf="http://www.w3.org/1999/02/22-rdf-syntax-ns#"
   xmlns:svg="http://www.w3.org/2000/svg"
   xmlns="http://www.w3.org/2000/svg"
   xmlns:sodipodi="http://sodipodi.sourceforge.net/DTD/sodipodi-0.dtd"
   xmlns:inkscape="http://www.inkscape.org/namespaces/inkscape"
   height="24px"
   viewBox="0 0 24 24"
   width="24px"
   fill="#000000"
   version="1.1"
   id="svg6"
   sodipodi:docname="bold.svg"
   inkscape:version="1.0.2 (e86c870879, 2021-01-15)">
  <metadata
     id="metadata12">
    <rdf:RDF>
      <cc:Work
         rdf:about="">
        <dc:format>image/svg+xml</dc:format>
        <dc:type
           rdf:resource="http://purl.org/dc/dcmitype/StillImage" />
      </cc:Work>
    </rdf:RDF>
  </metadata>
  <defs
     id="defs10" />
  <sodipodi:namedview
     pagecolor="#ffffff"
     bordercolor="#666666"
     borderopacity="1"
     objecttolerance="10"
     gridtolerance="10"
     guidetolerance="10"
     inkscape:pageopacity="0"
     inkscape:pageshadow="2"
     inkscape:window-width="742"
     inkscape:window-height="480"
     id="namedview8"
     showgrid="false"
     inkscape:zoom="10.532945"
     inkscape:cx="9.6931215"
     inkscape:cy="10.638571"
     inkscape:window-x="35"
     inkscape:window-y="0"
     inkscape:window-maximized="0"
     inkscape:current-layer="svg6" />
  <path
     d="M0 0h24v24H0V0z"
     fill="none"
     id="path2" />
  <path
     d="m 16.330195,11.804261 c 1.210581,-0.836175 2.059236,-2.2089993 2.059236,-3.4819817 0,-2.8205295 -2.184039,-4.9920876 -4.992087,-4.9920876 H 5.5972071 V 20.802499 h 8.7860739 c 2.608366,0 4.630161,-2.121638 4.630161,-4.730004 0,-1.896993 -1.073299,-3.519421 -2.683247,-4.268234 z M 9.3412728,6.4502464 h 3.7440652 c 1.035858,0 1.872032,0.8361747 1.872032,1.8720329 0,1.0358581 -0.836174,1.8720327 -1.872032,1.8720327 H 9.3412728 Z M 13.709349,17.682444 H 9.3412728 v -3.744065 h 4.3680762 c 1.035858,0 1.872033,0.836174 1.872033,1.872032 0,1.035858 -0.836175,1.872033 -1.872033,1.872033 z"
     id="path4"
     style="stroke-width:1.24802" />
</svg>
