<?xml version="1.0" encoding="UTF-8" standalone="no"?>
<svg
   width="24px"
   height="24px"
   fill="#000000"
   version="1.1"
   viewBox="0 -960 960 960"
   id="svg1"
   sodipodi:docname="expand-selection.svg"
   inkscape:version="1.3.2 (091e20e, 2023-11-25, custom)"
   xmlns:inkscape="http://www.inkscape.org/namespaces/inkscape"
   xmlns:sodipodi="http://sodipodi.sourceforge.net/DTD/sodipodi-0.dtd"
   xmlns="http://www.w3.org/2000/svg"
   xmlns:svg="http://www.w3.org/2000/svg">
  <defs
     id="defs1" />
  <sodipodi:namedview
     id="namedview1"
     pagecolor="#ffffff"
     bordercolor="#000000"
     borderopacity="0.25"
     inkscape:showpageshadow="2"
     inkscape:pageopacity="0.0"
     inkscape:pagecheckerboard="0"
     inkscape:deskcolor="#d1d1d1"
     inkscape:zoom="48.208333"
     inkscape:cx="11.989628"
     inkscape:cy="12"
     inkscape:window-width="2560"
     inkscape:window-height="1371"
     inkscape:window-x="1341"
     inkscape:window-y="511"
     inkscape:window-maximized="1"
     inkscape:current-layer="svg1" />
  <path
     d="m 437.16483,-865.50445 h 428.33911 v 428.33911 h -85.66783 v -282.7062 l -282.70618,282.7062 -59.96784,-59.96785 282.70618,-282.70619 H 437.16209 Z m 428.33911,599.67839 h -85.66783 v -85.66782 h 85.66783 z m -685.34805,85.66783 v 85.667818 q -35.33759,0 -60.50316,-25.164658 -25.164661,-25.16466 -25.164661,-60.50316 z m 0,-85.66783 H 94.488069 v -85.66782 h 85.667821 z m 0,-171.33928 H 94.488069 v -85.66783 h 85.667821 z m 0,-171.3393 H 94.488069 v -85.66781 h 85.667821 z m 0,-171.33929 H 94.488069 q 0,-35.33761 25.164661,-60.50317 25.16464,-25.16466 60.50316,-25.16466 z m 599.6784,599.67839 h 85.66782 q 0,35.33758 -25.16466,60.50316 -25.16466,25.164658 -60.50316,25.164658 z m -85.66784,85.667818 h -85.66781 v -85.667818 h 85.66781 z m -171.33928,0 h -85.66783 v -85.667818 h 85.66783 z m -171.33929,0 h -85.66782 v -85.667818 h 85.66782 z m 0,-685.348058 h -85.66782 v -85.66781 h 85.66782 z"
     stroke-width="1.07082"
     id="path1" />
</svg>
