<?xml version="1.0" encoding="UTF-8"?><svg width="24px" height="24px" fill="#000000" version="1.1" viewBox="0 -960 960 960" xmlns="http://www.w3.org/2000/svg"><path d="m437.16-865.5h428.34v428.34h-85.668v-282.71l-282.71 282.71-59.968-59.968 282.71-282.71h-282.71zm428.34 599.68h-85.668v-85.668h85.668zm-685.35 85.668v85.668q-35.338 0-60.503-25.165-25.165-25.165-25.165-60.503zm0-85.668h-85.668v-85.668h85.668zm0-171.34h-85.668v-85.668h85.668zm0-171.34h-85.668v-85.668h85.668zm0-171.34h-85.668q0-35.338 25.165-60.503 25.165-25.165 60.503-25.165zm599.68 599.68h85.668q0 35.338-25.165 60.503-25.165 25.165-60.503 25.165zm-85.668 85.668h-85.668v-85.668h85.668zm-171.34 0h-85.668v-85.668h85.668zm-171.34 0h-85.668v-85.668h85.668zm0-685.35h-85.668v-85.668h85.668z" stroke-width="1.0708"/></svg>