<?xml version="1.0" encoding="UTF-8"?><svg width="24px" height="24px" fill="#000000" version="1.1" viewBox="0 0 24 24" xmlns="http://www.w3.org/2000/svg"><path d="M0 0h24v24H0V0z" fill="none"/><path d="m12 19.071 2.8284-2.8284-1.4142-1.4142-2.8284 2.8284c-1.1667 1.1667-3.0759 1.1667-4.2426 0-1.1667-1.1667-1.1667-3.0759 6e-7 -4.2426l2.8284-2.8284-1.4142-1.4142-2.8284 2.8284c-1.9516 1.9516-1.9516 5.1195-1e-7 7.0711 1.9516 1.9516 5.1195 1.9516 7.0711 0zm-1.4142-9.8995 2.8284-2.8284c1.1667-1.1667 3.0759-1.1667 4.2426-9e-7s1.1667 3.0759 0 4.2426l-2.8284 2.8284 1.4142 1.4142 2.8284-2.8284c1.9516-1.9516 1.9516-5.1195 0-7.0711-1.9516-1.9516-5.1195-1.9516-7.0711 0l-2.8284 2.8284zm4.9497 0.70711-5.6569 5.6569-1.4142-1.4142 5.6569-5.6569z"/></svg>