<?xml version="1.0" encoding="UTF-8" standalone="no"?>
<svg
   xmlns:dc="http://purl.org/dc/elements/1.1/"
   xmlns:cc="http://creativecommons.org/ns#"
   xmlns:rdf="http://www.w3.org/1999/02/22-rdf-syntax-ns#"
   xmlns:svg="http://www.w3.org/2000/svg"
   xmlns="http://www.w3.org/2000/svg"
   xmlns:sodipodi="http://sodipodi.sourceforge.net/DTD/sodipodi-0.dtd"
   xmlns:inkscape="http://www.inkscape.org/namespaces/inkscape"
   height="24px"
   viewBox="0 0 24 24"
   width="24px"
   fill="#000000"
   version="1.1"
   id="svg6"
   sodipodi:docname="search.svg"
   inkscape:version="1.0.2 (e86c870879, 2021-01-15)">
  <metadata
     id="metadata12">
    <rdf:RDF>
      <cc:Work
         rdf:about="">
        <dc:format>image/svg+xml</dc:format>
        <dc:type
           rdf:resource="http://purl.org/dc/dcmitype/StillImage" />
      </cc:Work>
    </rdf:RDF>
  </metadata>
  <defs
     id="defs10" />
  <sodipodi:namedview
     pagecolor="#ffffff"
     bordercolor="#666666"
     borderopacity="1"
     objecttolerance="10"
     gridtolerance="10"
     guidetolerance="10"
     inkscape:pageopacity="0"
     inkscape:pageshadow="2"
     inkscape:window-width="1885"
     inkscape:window-height="1056"
     id="namedview8"
     showgrid="false"
     inkscape:zoom="29.791667"
     inkscape:cx="12"
     inkscape:cy="12"
     inkscape:window-x="35"
     inkscape:window-y="0"
     inkscape:window-maximized="1"
     inkscape:current-layer="svg6" />
  <path
     d="M0 0h24v24H0V0z"
     fill="none"
     id="path2" />
  <path
     d="m 16.435787,14.561243 h -0.901373 l -0.319475,-0.308064 c 1.118161,-1.300717 1.791339,-2.989368 1.791339,-4.8263461 0,-4.0961188 -3.320253,-7.4163707 -7.4163705,-7.4163707 -4.0961183,0 -7.4163703,3.3202519 -7.4163703,7.4163707 0,4.0961191 3.320252,7.4163701 7.4163703,7.4163701 1.8369785,0 3.5256285,-0.673178 4.8263455,-1.791339 l 0.308065,0.319475 v 0.901375 l 5.7049,5.693489 1.70006,-1.700059 z m -6.8458795,0 c -2.8410403,0 -5.1344102,-2.29337 -5.1344102,-5.1344101 0,-2.8410408 2.2933699,-5.1344106 5.1344102,-5.1344106 2.8410405,0 5.1344105,2.2933698 5.1344105,5.1344106 0,2.8410401 -2.29337,5.1344101 -5.1344105,5.1344101 z"
     id="path4"
     style="stroke-width:1.14098" />
</svg>
