<?xml version="1.0" encoding="UTF-8"?><svg width="24px" height="24px" fill="#000000" version="1.1" viewBox="0 0 24 24" xmlns="http://www.w3.org/2000/svg" ><path d="M0 0h24v24H0V0z" fill="none"/><path d="m16.436 14.561h-0.90137l-0.31948-0.30806c1.1182-1.3007 1.7913-2.9894 1.7913-4.8263 0-4.0961-3.3203-7.4164-7.4164-7.4164-4.0961 0-7.4164 3.3203-7.4164 7.4164 0 4.0961 3.3203 7.4164 7.4164 7.4164 1.837 0 3.5256-0.67318 4.8263-1.7913l0.30806 0.31948v0.90138l5.7049 5.6935 1.7001-1.7001zm-6.8459 0c-2.841 0-5.1344-2.2934-5.1344-5.1344 0-2.841 2.2934-5.1344 5.1344-5.1344 2.841 0 5.1344 2.2934 5.1344 5.1344 0 2.841-2.2934 5.1344-5.1344 5.1344z" stroke-width="1.141"/></svg>